<svg id="visual" viewBox="0 0 960 1000" width="960" height="1000" xmlns="http://www.w3.org/2000/svg" xmlns:xlink="http://www.w3.org/1999/xlink" version="1.1"><rect x="0" y="0" width="960" height="1000" fill="#f7f7f7"></rect><defs><linearGradient id="grad1_0" x1="0%" y1="0%" x2="100%" y2="100%"><stop offset="30%" stop-color="#f7f7f7" stop-opacity="1"></stop><stop offset="70%" stop-color="#f7f7f7" stop-opacity="1"></stop></linearGradient></defs><defs><linearGradient id="grad2_0" x1="0%" y1="0%" x2="100%" y2="100%"><stop offset="30%" stop-color="#f7f7f7" stop-opacity="1"></stop><stop offset="70%" stop-color="#f7f7f7" stop-opacity="1"></stop></linearGradient></defs><g transform="translate(960, 0)"><path d="M0 381.2C-35.3 341.4 -70.6 301.7 -119.8 289.2C-169 276.7 -232 291.4 -269.6 269.6C-307.1 247.7 -319.2 189.2 -333.5 138.1C-347.9 87.1 -364.5 43.6 -381.2 0L0 0Z" fill="#00334b"></path></g><g transform="translate(0, 1000)"><path d="M0 -381.2C55.1 -381.5 110.3 -381.8 145.9 -352.2C181.5 -322.6 197.5 -263.2 223.4 -223.4C249.4 -183.7 285.2 -163.7 313.2 -129.7C341.1 -95.8 361.2 -47.9 381.2 0L0 0Z" fill="#00334b"></path></g></svg>