<svg id="visual" viewBox="0 0 960 540" width="960" height="540" xmlns="http://www.w3.org/2000/svg" xmlns:xlink="http://www.w3.org/1999/xlink" version="1.1"><rect x="0" y="0" width="960" height="540" fill="#f7f7f7"></rect><defs><linearGradient id="grad1_0" x1="43.8%" y1="0%" x2="100%" y2="100%"><stop offset="14.444444444444446%" stop-color="#f7f7f7" stop-opacity="1"></stop><stop offset="85.55555555555554%" stop-color="#f7f7f7" stop-opacity="1"></stop></linearGradient></defs><defs><linearGradient id="grad2_0" x1="0%" y1="0%" x2="56.3%" y2="100%"><stop offset="14.444444444444446%" stop-color="#f7f7f7" stop-opacity="1"></stop><stop offset="85.55555555555554%" stop-color="#f7f7f7" stop-opacity="1"></stop></linearGradient></defs><g transform="translate(960, 0)"><path d="M0 297C-27.4 268.1 -54.9 239.2 -95.3 230C-135.7 220.9 -189.2 231.5 -210 210C-230.9 188.5 -219.1 134.9 -228.2 94.5C-237.3 54.2 -267.1 27.1 -297 0L0 0Z" fill="#00334b"></path></g><g transform="translate(0, 540)"><path d="M0 -297C40.8 -292.7 81.6 -288.4 111.4 -268.8C141.1 -249.3 159.7 -214.5 188.1 -188.1C216.5 -161.7 254.6 -143.6 274.4 -113.7C294.2 -83.7 295.6 -41.9 297 0L0 0Z" fill="#00334b"></path></g></svg>