<svg id="visual" viewBox="0 0 900 900" width="900" height="900" xmlns="http://www.w3.org/2000/svg" xmlns:xlink="http://www.w3.org/1999/xlink" version="1.1"><rect x="0" y="0" width="900" height="900" fill="#f7f7f7"></rect><defs><linearGradient id="grad1_0" x1="0%" y1="0%" x2="100%" y2="100%"><stop offset="30%" stop-color="#f7f7f7" stop-opacity="1"></stop><stop offset="70%" stop-color="#f7f7f7" stop-opacity="1"></stop></linearGradient></defs><defs><linearGradient id="grad2_0" x1="0%" y1="0%" x2="100%" y2="100%"><stop offset="30%" stop-color="#f7f7f7" stop-opacity="1"></stop><stop offset="70%" stop-color="#f7f7f7" stop-opacity="1"></stop></linearGradient></defs><g transform="translate(900, 0)"><path d="M0 413.7C-49.7 402 -99.3 390.4 -155 374.2C-210.6 358 -272.3 337.2 -292.5 292.5C-312.7 247.8 -291.6 179 -304.9 126.3C-318.2 73.5 -365.9 36.8 -413.7 0L0 0Z" fill="#00334b"></path></g><g transform="translate(0, 900)"><path d="M0 -413.7C45.2 -385.5 90.4 -357.4 141.2 -340.9C192 -324.5 248.3 -319.7 291.3 -291.3C334.3 -262.9 364 -210.8 382.2 -158.3C400.3 -105.8 407 -52.9 413.7 0L0 0Z" fill="#00334b"></path></g></svg>