<svg id="visual" viewBox="0 0 960 540" width="960" height="540" xmlns="http://www.w3.org/2000/svg" xmlns:xlink="http://www.w3.org/1999/xlink" version="1.1"><rect x="0" y="0" width="960" height="540" fill="#00334b"></rect><defs><linearGradient id="grad1_0" x1="43.8%" y1="0%" x2="100%" y2="100%"><stop offset="14.444444444444446%" stop-color="#00334b" stop-opacity="1"></stop><stop offset="85.55555555555554%" stop-color="#00334b" stop-opacity="1"></stop></linearGradient></defs><defs><linearGradient id="grad2_0" x1="0%" y1="0%" x2="56.3%" y2="100%"><stop offset="14.444444444444446%" stop-color="#00334b" stop-opacity="1"></stop><stop offset="85.55555555555554%" stop-color="#00334b" stop-opacity="1"></stop></linearGradient></defs><g transform="translate(960, 0)"><path d="M0 297C-30.6 272.7 -61.2 248.4 -98.3 237.4C-135.5 226.5 -179.1 228.9 -210 210C-241 191.2 -259.2 151.1 -271.6 112.5C-284 74 -290.5 37 -297 0L0 0Z" fill="#0D6EFD"></path></g><g transform="translate(0, 540)"><path d="M0 -297C40.6 -295.1 81.2 -293.3 113.7 -274.4C146.1 -255.5 170.4 -219.7 187.4 -187.4C204.3 -155.1 213.9 -126.3 231 -95.7C248 -65 272.5 -32.5 297 0L0 0Z" fill="#0D6EFD"></path></g></svg>