<svg id="visual" viewBox="0 0 960 540" width="960" height="540" xmlns="http://www.w3.org/2000/svg" xmlns:xlink="http://www.w3.org/1999/xlink" version="1.1"><rect x="0" y="0" width="960" height="540" fill="#F9F9FB"></rect><path d="M0 334L22.8 342C45.7 350 91.3 366 137 373.8C182.7 381.7 228.3 381.3 274 386C319.7 390.7 365.3 400.3 411.2 396.8C457 393.3 503 376.7 548.8 373.2C594.7 369.7 640.3 379.3 686 387C731.7 394.7 777.3 400.3 823 394.2C868.7 388 914.3 370 937.2 361L960 352L960 541L937.2 541C914.3 541 868.7 541 823 541C777.3 541 731.7 541 686 541C640.3 541 594.7 541 548.8 541C503 541 457 541 411.2 541C365.3 541 319.7 541 274 541C228.3 541 182.7 541 137 541C91.3 541 45.7 541 22.8 541L0 541Z" fill="#80cc29"></path><path d="M0 401L22.8 403.3C45.7 405.7 91.3 410.3 137 409.8C182.7 409.3 228.3 403.7 274 396.5C319.7 389.3 365.3 380.7 411.2 388.3C457 396 503 420 548.8 421.7C594.7 423.3 640.3 402.7 686 397.8C731.7 393 777.3 404 823 404.3C868.7 404.7 914.3 394.3 937.2 389.2L960 384L960 541L937.2 541C914.3 541 868.7 541 823 541C777.3 541 731.7 541 686 541C640.3 541 594.7 541 548.8 541C503 541 457 541 411.2 541C365.3 541 319.7 541 274 541C228.3 541 182.7 541 137 541C91.3 541 45.7 541 22.8 541L0 541Z" fill="#6bb532"></path><path d="M0 470L22.8 466.7C45.7 463.3 91.3 456.7 137 446.8C182.7 437 228.3 424 274 417.7C319.7 411.3 365.3 411.7 411.2 419.7C457 427.7 503 443.3 548.8 447.5C594.7 451.7 640.3 444.3 686 437.3C731.7 430.3 777.3 423.7 823 424.8C868.7 426 914.3 435 937.2 439.5L960 444L960 541L937.2 541C914.3 541 868.7 541 823 541C777.3 541 731.7 541 686 541C640.3 541 594.7 541 548.8 541C503 541 457 541 411.2 541C365.3 541 319.7 541 274 541C228.3 541 182.7 541 137 541C91.3 541 45.7 541 22.8 541L0 541Z" fill="#589d37"></path><path d="M0 511L22.8 504.3C45.7 497.7 91.3 484.3 137 477.2C182.7 470 228.3 469 274 473.3C319.7 477.7 365.3 487.3 411.2 492.5C457 497.7 503 498.3 548.8 498.7C594.7 499 640.3 499 686 492.8C731.7 486.7 777.3 474.3 823 475.8C868.7 477.3 914.3 492.7 937.2 500.3L960 508L960 541L937.2 541C914.3 541 868.7 541 823 541C777.3 541 731.7 541 686 541C640.3 541 594.7 541 548.8 541C503 541 457 541 411.2 541C365.3 541 319.7 541 274 541C228.3 541 182.7 541 137 541C91.3 541 45.7 541 22.8 541L0 541Z" fill="#498638"></path></svg>