<svg id="visual" viewBox="0 0 2000 900" width="2000" height="900" xmlns="http://www.w3.org/2000/svg" xmlns:xlink="http://www.w3.org/1999/xlink" version="1.1"><rect x="0" y="0" width="2000" height="900" fill="#F8F9FA"></rect><path d="M0 469L47.7 487C95.3 505 190.7 541 285.8 552.3C381 563.7 476 550.3 571.2 526.3C666.3 502.3 761.7 467.7 857 454.7C952.3 441.7 1047.7 450.3 1143 473.3C1238.3 496.3 1333.7 533.7 1428.8 548.5C1524 563.3 1619 555.7 1714.2 535.8C1809.3 516 1904.7 484 1952.3 468L2000 452L2000 901L1952.3 901C1904.7 901 1809.3 901 1714.2 901C1619 901 1524 901 1428.8 901C1333.7 901 1238.3 901 1143 901C1047.7 901 952.3 901 857 901C761.7 901 666.3 901 571.2 901C476 901 381 901 285.8 901C190.7 901 95.3 901 47.7 901L0 901Z" fill="#97c0ff"></path><path d="M0 624L47.7 617.2C95.3 610.3 190.7 596.7 285.8 583.2C381 569.7 476 556.3 571.2 561.5C666.3 566.7 761.7 590.3 857 612.2C952.3 634 1047.7 654 1143 634.3C1238.3 614.7 1333.7 555.3 1428.8 536.8C1524 518.3 1619 540.7 1714.2 563.5C1809.3 586.3 1904.7 609.7 1952.3 621.3L2000 633L2000 901L1952.3 901C1904.7 901 1809.3 901 1714.2 901C1619 901 1524 901 1428.8 901C1333.7 901 1238.3 901 1143 901C1047.7 901 952.3 901 857 901C761.7 901 666.3 901 571.2 901C476 901 381 901 285.8 901C190.7 901 95.3 901 47.7 901L0 901Z" fill="#6fa6ff"></path><path d="M0 625L47.7 635C95.3 645 190.7 665 285.8 663.8C381 662.7 476 640.3 571.2 639.5C666.3 638.7 761.7 659.3 857 668.3C952.3 677.3 1047.7 674.7 1143 685C1238.3 695.3 1333.7 718.7 1428.8 730.7C1524 742.7 1619 743.3 1714.2 724.5C1809.3 705.7 1904.7 667.3 1952.3 648.2L2000 629L2000 901L1952.3 901C1904.7 901 1809.3 901 1714.2 901C1619 901 1524 901 1428.8 901C1333.7 901 1238.3 901 1143 901C1047.7 901 952.3 901 857 901C761.7 901 666.3 901 571.2 901C476 901 381 901 285.8 901C190.7 901 95.3 901 47.7 901L0 901Z" fill="#468bff"></path><path d="M0 828L47.7 829.2C95.3 830.3 190.7 832.7 285.8 815.7C381 798.7 476 762.3 571.2 751.8C666.3 741.3 761.7 756.7 857 755.5C952.3 754.3 1047.7 736.7 1143 741.2C1238.3 745.7 1333.7 772.3 1428.8 788.5C1524 804.7 1619 810.3 1714.2 807.5C1809.3 804.7 1904.7 793.3 1952.3 787.7L2000 782L2000 901L1952.3 901C1904.7 901 1809.3 901 1714.2 901C1619 901 1524 901 1428.8 901C1333.7 901 1238.3 901 1143 901C1047.7 901 952.3 901 857 901C761.7 901 666.3 901 571.2 901C476 901 381 901 285.8 901C190.7 901 95.3 901 47.7 901L0 901Z" fill="#0f6ffd"></path></svg>