<svg id="visual" viewBox="0 0 960 540" width="960" height="540" xmlns="http://www.w3.org/2000/svg" xmlns:xlink="http://www.w3.org/1999/xlink" version="1.1"><rect x="0" y="0" width="960" height="540" fill="#F8F9FA"></rect><path d="M0 462L22.8 449.8C45.7 437.7 91.3 413.3 137 404C182.7 394.7 228.3 400.3 274 399.8C319.7 399.3 365.3 392.7 411.2 399C457 405.3 503 424.7 548.8 429.2C594.7 433.7 640.3 423.3 686 411.3C731.7 399.3 777.3 385.7 823 378.7C868.7 371.7 914.3 371.3 937.2 371.2L960 371L960 541L937.2 541C914.3 541 868.7 541 823 541C777.3 541 731.7 541 686 541C640.3 541 594.7 541 548.8 541C503 541 457 541 411.2 541C365.3 541 319.7 541 274 541C228.3 541 182.7 541 137 541C91.3 541 45.7 541 22.8 541L0 541Z" fill="#97c0ff"></path><path d="M0 409L22.8 410C45.7 411 91.3 413 137 425.5C182.7 438 228.3 461 274 465.2C319.7 469.3 365.3 454.7 411.2 440.7C457 426.7 503 413.3 548.8 414C594.7 414.7 640.3 429.3 686 445.2C731.7 461 777.3 478 823 486.5C868.7 495 914.3 495 937.2 495L960 495L960 541L937.2 541C914.3 541 868.7 541 823 541C777.3 541 731.7 541 686 541C640.3 541 594.7 541 548.8 541C503 541 457 541 411.2 541C365.3 541 319.7 541 274 541C228.3 541 182.7 541 137 541C91.3 541 45.7 541 22.8 541L0 541Z" fill="#5b99ff"></path><path d="M0 467L22.8 475.3C45.7 483.7 91.3 500.3 137 504C182.7 507.7 228.3 498.3 274 490.8C319.7 483.3 365.3 477.7 411.2 482.2C457 486.7 503 501.3 548.8 506.3C594.7 511.3 640.3 506.7 686 505C731.7 503.3 777.3 504.7 823 504C868.7 503.3 914.3 500.7 937.2 499.3L960 498L960 541L937.2 541C914.3 541 868.7 541 823 541C777.3 541 731.7 541 686 541C640.3 541 594.7 541 548.8 541C503 541 457 541 411.2 541C365.3 541 319.7 541 274 541C228.3 541 182.7 541 137 541C91.3 541 45.7 541 22.8 541L0 541Z" fill="#0f6ffd"></path></svg>