<svg xmlns="http://www.w3.org/2000/svg" viewBox="0 0 1440 762" preserveAspectRatio="xMidYMid" width="1440" height="762" xmlns:xlink="http://www.w3.org/1999/xlink" style="shape-rendering:auto;display:block;background-position-x:0%;background-position-y:0%;background-size:auto;background-origin:padding-box;background-clip:border-box;background:scroll rgba(0, 0, 0, 0) none  repeat;width:1440px;height:762px;;animation:none"><g style="transform:matrix(-1, 0, 0, 1, 1440, 0);;animation:none"><linearGradient y2="1" y1="0" x2="0" x1="0" id="lg-o578w6yh81n"><stop offset="0" stop-color="#80cd28"></stop>

  
<stop offset="1" stop-color="#00ffff"></stop></linearGradient>
<path opacity="0.4" fill="url(#lg-o578w6yh81n)" d="M 0 0 L 866.15 0 Q 806.57 76.2 786.57 152.4 T 636.17 304.8 T 562.59 457.2 T 576 609.6 T 458.31 762 L 0 762 Z" style="fill:url('#lg-o578w6yh81n');opacity:0.4;;animation:none"></path>
<path opacity="0.4" fill="url(#lg-o578w6yh81n)" d="M 0 0 L 826.917 0 Q 771.65 76.2 746.829 152.4 T 651.527 304.8 T 541.907 457.2 T 439.429 609.6 T 399.847 762 L 0 762 Z" style="fill:url('#lg-o578w6yh81n');opacity:0.4;;animation:none"></path>
<path opacity="0.4" fill="url(#lg-o578w6yh81n)" d="M 0 0 L 839 0 Q 841.425 76.2 817.204 152.4 T 602.622 304.8 T 588.879 457.2 T 460.772 609.6 T 362.949 762 L 0 762 Z" style="fill:url('#lg-o578w6yh81n');opacity:0.4;;animation:none"></path>
<path opacity="0.4" fill="url(#lg-o578w6yh81n)" d="M 0 0 L 871.785 0 Q 762.011 76.2 737.289 152.4 T 717.126 304.8 T 579.702 457.2 T 571.416 609.6 T 451.903 762 L 0 762 Z" style="fill:url('#lg-o578w6yh81n');opacity:0.4;;animation:none"></path>
<path opacity="0.4" fill="url(#lg-o578w6yh81n)" d="M 0 0 L 896.058 0 Q 776.679 76.2 755.335 152.4 T 644.297 304.8 T 613.84 457.2 T 430.42 609.6 T 337.679 762 L 0 762 Z" style="fill:url('#lg-o578w6yh81n');opacity:0.4;;animation:none"></path>
<g></g></g><!-- [ldio] generated by https://loading.io --></svg>